<?xml version="1.0" encoding="iso-8859-1"?>
<!-- Generator: Adobe Illustrator 19.0.0, SVG Export Plug-In . SVG Version: 6.00 Build 0)  -->
<svg version="1.1" id="Capa_1" xmlns="http://www.w3.org/2000/svg" xmlns:xlink="http://www.w3.org/1999/xlink" x="0px" y="0px"
	 viewBox="0 0 511.992 511.992" style="enable-background:new 0 0 511.992 511.992;" xml:space="preserve">
<g>
	<g>
		<path d="M239.992,159.998h-48v-80c0-6.624-4.064-12.544-10.208-14.944c-6.144-2.368-13.152-0.704-17.632,4.192l-160,176
			c-5.536,6.08-5.536,15.392,0,21.504l160,176c3.104,3.392,7.424,5.248,11.84,5.248c1.952,0,3.904-0.352,5.792-1.056
			c6.144-2.4,10.208-8.32,10.208-14.944v-80h44.512c91.328,0,179.776,32.704,249.088,92.16c4.704,4.064,11.456,4.992,17.088,2.368
			c5.696-2.592,9.312-8.288,9.312-14.528C511.992,282.014,389.976,159.998,239.992,159.998z M236.504,319.998h-60.512
			c-8.832,0-16,7.168-16,16v54.624L37.624,255.998l122.368-134.624v54.624c0,8.832,7.168,16,16,16h64
			c64.096,0,124.384,24.96,169.696,70.272c37.024,37.024,60.48,84.032,67.808,134.912
			C407.416,347.198,323.16,319.998,236.504,319.998z"/>
	</g>
</g>
<g>
</g>
<g>
</g>
<g>
</g>
<g>
</g>
<g>
</g>
<g>
</g>
<g>
</g>
<g>
</g>
<g>
</g>
<g>
</g>
<g>
</g>
<g>
</g>
<g>
</g>
<g>
</g>
<g>
</g>
</svg>
